<mxfile host="app.diagrams.net" modified="2022-09-08T02:20:31.233Z" agent="5.0 (Windows NT 10.0; Win64; x64) AppleWebKit/537.36 (KHTML, like Gecko) Chrome/105.0.0.0 Safari/537.36" etag="XMA2gbFf41WdNu9LHHgo" version="20.2.6" type="github">
  <diagram name="Page-1" id="edf60f1a-56cd-e834-aa8a-f176f3a09ee4">
    <mxGraphModel dx="2904" dy="1631" grid="1" gridSize="10" guides="1" tooltips="1" connect="1" arrows="1" fold="1" page="1" pageScale="1" pageWidth="1100" pageHeight="850" background="none" math="0" shadow="0">
      <root>
        <mxCell id="0" />
        <mxCell id="1" parent="0" />
        <mxCell id="60e70716793133e9-30" value="End" style="strokeWidth=1;html=1;shape=mxgraph.flowchart.terminator;whiteSpace=wrap;rounded=0;shadow=1;labelBackgroundColor=none;fontFamily=Verdana;fontSize=8;align=center;" parent="1" vertex="1">
          <mxGeometry x="310" y="1340" width="60" height="30" as="geometry" />
        </mxCell>
        <mxCell id="IoNQCCT8y5Htm-tojCqb-22" style="edgeStyle=orthogonalEdgeStyle;rounded=0;orthogonalLoop=1;jettySize=auto;html=1;" edge="1" parent="1" source="IoNQCCT8y5Htm-tojCqb-1" target="IoNQCCT8y5Htm-tojCqb-21">
          <mxGeometry relative="1" as="geometry" />
        </mxCell>
        <mxCell id="IoNQCCT8y5Htm-tojCqb-42" value="Yes" style="edgeLabel;html=1;align=center;verticalAlign=middle;resizable=0;points=[];" vertex="1" connectable="0" parent="IoNQCCT8y5Htm-tojCqb-22">
          <mxGeometry x="-0.242" y="3" relative="1" as="geometry">
            <mxPoint as="offset" />
          </mxGeometry>
        </mxCell>
        <mxCell id="IoNQCCT8y5Htm-tojCqb-25" style="edgeStyle=orthogonalEdgeStyle;rounded=0;orthogonalLoop=1;jettySize=auto;html=1;" edge="1" parent="1" source="IoNQCCT8y5Htm-tojCqb-1" target="IoNQCCT8y5Htm-tojCqb-20">
          <mxGeometry relative="1" as="geometry" />
        </mxCell>
        <mxCell id="IoNQCCT8y5Htm-tojCqb-1" value="If Registered?" style="rhombus;whiteSpace=wrap;html=1;" vertex="1" parent="1">
          <mxGeometry x="290" y="270" width="160" height="130" as="geometry" />
        </mxCell>
        <mxCell id="IoNQCCT8y5Htm-tojCqb-32" style="edgeStyle=orthogonalEdgeStyle;rounded=0;orthogonalLoop=1;jettySize=auto;html=1;" edge="1" parent="1" source="IoNQCCT8y5Htm-tojCqb-2" target="60e70716793133e9-30">
          <mxGeometry relative="1" as="geometry" />
        </mxCell>
        <mxCell id="IoNQCCT8y5Htm-tojCqb-2" value="Received Email, Forgot Password,&lt;br&gt;Change Password" style="rounded=0;whiteSpace=wrap;html=1;" vertex="1" parent="1">
          <mxGeometry x="560" y="1100" width="120" height="60" as="geometry" />
        </mxCell>
        <mxCell id="IoNQCCT8y5Htm-tojCqb-31" style="edgeStyle=orthogonalEdgeStyle;rounded=0;orthogonalLoop=1;jettySize=auto;html=1;entryX=0.5;entryY=0;entryDx=0;entryDy=0;" edge="1" parent="1" source="IoNQCCT8y5Htm-tojCqb-3" target="IoNQCCT8y5Htm-tojCqb-2">
          <mxGeometry relative="1" as="geometry" />
        </mxCell>
        <mxCell id="IoNQCCT8y5Htm-tojCqb-3" value="Search Event, Add Event to Wishlist and Do Booking" style="rounded=0;whiteSpace=wrap;html=1;" vertex="1" parent="1">
          <mxGeometry x="560" y="970" width="120" height="60" as="geometry" />
        </mxCell>
        <mxCell id="IoNQCCT8y5Htm-tojCqb-33" style="edgeStyle=orthogonalEdgeStyle;rounded=0;orthogonalLoop=1;jettySize=auto;html=1;" edge="1" parent="1" source="IoNQCCT8y5Htm-tojCqb-6" target="60e70716793133e9-30">
          <mxGeometry relative="1" as="geometry">
            <mxPoint x="220" y="1140" as="targetPoint" />
            <Array as="points">
              <mxPoint x="200" y="1130" />
              <mxPoint x="340" y="1130" />
            </Array>
          </mxGeometry>
        </mxCell>
        <mxCell id="IoNQCCT8y5Htm-tojCqb-6" value="CRUD:&lt;br&gt;Event&lt;br&gt;Booking,&lt;br&gt;Booking Section,&lt;br&gt;and other&amp;nbsp;" style="rounded=0;whiteSpace=wrap;html=1;" vertex="1" parent="1">
          <mxGeometry x="160" y="970" width="120" height="100" as="geometry" />
        </mxCell>
        <mxCell id="IoNQCCT8y5Htm-tojCqb-15" style="edgeStyle=orthogonalEdgeStyle;rounded=0;orthogonalLoop=1;jettySize=auto;html=1;" edge="1" parent="1" target="IoNQCCT8y5Htm-tojCqb-12">
          <mxGeometry relative="1" as="geometry">
            <mxPoint x="370" y="530" as="sourcePoint" />
          </mxGeometry>
        </mxCell>
        <mxCell id="IoNQCCT8y5Htm-tojCqb-45" value="Yes" style="edgeLabel;html=1;align=center;verticalAlign=middle;resizable=0;points=[];" vertex="1" connectable="0" parent="IoNQCCT8y5Htm-tojCqb-15">
          <mxGeometry x="-0.2462" y="-1" relative="1" as="geometry">
            <mxPoint as="offset" />
          </mxGeometry>
        </mxCell>
        <mxCell id="IoNQCCT8y5Htm-tojCqb-17" style="edgeStyle=orthogonalEdgeStyle;rounded=0;orthogonalLoop=1;jettySize=auto;html=1;" edge="1" parent="1" source="IoNQCCT8y5Htm-tojCqb-12" target="IoNQCCT8y5Htm-tojCqb-16">
          <mxGeometry relative="1" as="geometry" />
        </mxCell>
        <mxCell id="IoNQCCT8y5Htm-tojCqb-44" value="Yes" style="edgeLabel;html=1;align=center;verticalAlign=middle;resizable=0;points=[];" vertex="1" connectable="0" parent="IoNQCCT8y5Htm-tojCqb-17">
          <mxGeometry x="-0.2204" y="-1" relative="1" as="geometry">
            <mxPoint as="offset" />
          </mxGeometry>
        </mxCell>
        <mxCell id="IoNQCCT8y5Htm-tojCqb-23" style="edgeStyle=orthogonalEdgeStyle;rounded=0;orthogonalLoop=1;jettySize=auto;html=1;entryX=1;entryY=0.5;entryDx=0;entryDy=0;" edge="1" parent="1" source="IoNQCCT8y5Htm-tojCqb-12" target="IoNQCCT8y5Htm-tojCqb-21">
          <mxGeometry relative="1" as="geometry">
            <mxPoint x="530" y="500" as="targetPoint" />
            <Array as="points">
              <mxPoint x="610" y="695" />
              <mxPoint x="610" y="500" />
            </Array>
          </mxGeometry>
        </mxCell>
        <mxCell id="IoNQCCT8y5Htm-tojCqb-43" value="No" style="edgeLabel;html=1;align=center;verticalAlign=middle;resizable=0;points=[];" vertex="1" connectable="0" parent="IoNQCCT8y5Htm-tojCqb-23">
          <mxGeometry x="-0.0872" relative="1" as="geometry">
            <mxPoint as="offset" />
          </mxGeometry>
        </mxCell>
        <mxCell id="IoNQCCT8y5Htm-tojCqb-12" value="Is Valid?" style="rhombus;whiteSpace=wrap;html=1;" vertex="1" parent="1">
          <mxGeometry x="290" y="630" width="160" height="130" as="geometry" />
        </mxCell>
        <mxCell id="IoNQCCT8y5Htm-tojCqb-24" style="edgeStyle=orthogonalEdgeStyle;rounded=0;orthogonalLoop=1;jettySize=auto;html=1;" edge="1" parent="1" source="IoNQCCT8y5Htm-tojCqb-16" target="IoNQCCT8y5Htm-tojCqb-3">
          <mxGeometry relative="1" as="geometry">
            <mxPoint x="640" y="875" as="targetPoint" />
            <Array as="points">
              <mxPoint x="630" y="875" />
            </Array>
          </mxGeometry>
        </mxCell>
        <mxCell id="IoNQCCT8y5Htm-tojCqb-46" value="No" style="edgeLabel;html=1;align=center;verticalAlign=middle;resizable=0;points=[];" vertex="1" connectable="0" parent="IoNQCCT8y5Htm-tojCqb-24">
          <mxGeometry x="-0.3827" y="-1" relative="1" as="geometry">
            <mxPoint as="offset" />
          </mxGeometry>
        </mxCell>
        <mxCell id="IoNQCCT8y5Htm-tojCqb-49" value="User" style="edgeLabel;html=1;align=center;verticalAlign=middle;resizable=0;points=[];" vertex="1" connectable="0" parent="IoNQCCT8y5Htm-tojCqb-24">
          <mxGeometry x="0.5911" y="-1" relative="1" as="geometry">
            <mxPoint as="offset" />
          </mxGeometry>
        </mxCell>
        <mxCell id="IoNQCCT8y5Htm-tojCqb-27" style="edgeStyle=orthogonalEdgeStyle;rounded=0;orthogonalLoop=1;jettySize=auto;html=1;" edge="1" parent="1" source="IoNQCCT8y5Htm-tojCqb-16" target="IoNQCCT8y5Htm-tojCqb-6">
          <mxGeometry relative="1" as="geometry">
            <mxPoint x="220" y="875" as="targetPoint" />
          </mxGeometry>
        </mxCell>
        <mxCell id="IoNQCCT8y5Htm-tojCqb-47" value="Yes" style="edgeLabel;html=1;align=center;verticalAlign=middle;resizable=0;points=[];" vertex="1" connectable="0" parent="IoNQCCT8y5Htm-tojCqb-27">
          <mxGeometry x="-0.4696" y="-2" relative="1" as="geometry">
            <mxPoint as="offset" />
          </mxGeometry>
        </mxCell>
        <mxCell id="IoNQCCT8y5Htm-tojCqb-48" value="Admin" style="edgeLabel;html=1;align=center;verticalAlign=middle;resizable=0;points=[];" vertex="1" connectable="0" parent="IoNQCCT8y5Htm-tojCqb-27">
          <mxGeometry x="0.4728" relative="1" as="geometry">
            <mxPoint as="offset" />
          </mxGeometry>
        </mxCell>
        <mxCell id="IoNQCCT8y5Htm-tojCqb-16" value="Is Admin?" style="rhombus;whiteSpace=wrap;html=1;" vertex="1" parent="1">
          <mxGeometry x="290" y="810" width="160" height="130" as="geometry" />
        </mxCell>
        <mxCell id="IoNQCCT8y5Htm-tojCqb-20" value="Registration" style="rounded=0;whiteSpace=wrap;html=1;" vertex="1" parent="1">
          <mxGeometry x="560" y="305" width="120" height="60" as="geometry" />
        </mxCell>
        <mxCell id="IoNQCCT8y5Htm-tojCqb-21" value="Login" style="rounded=0;whiteSpace=wrap;html=1;" vertex="1" parent="1">
          <mxGeometry x="310" y="470" width="120" height="60" as="geometry" />
        </mxCell>
        <mxCell id="IoNQCCT8y5Htm-tojCqb-35" style="edgeStyle=orthogonalEdgeStyle;rounded=0;orthogonalLoop=1;jettySize=auto;html=1;entryX=0.5;entryY=0;entryDx=0;entryDy=0;" edge="1" parent="1" source="IoNQCCT8y5Htm-tojCqb-34" target="IoNQCCT8y5Htm-tojCqb-1">
          <mxGeometry relative="1" as="geometry" />
        </mxCell>
        <mxCell id="IoNQCCT8y5Htm-tojCqb-36" value="User" style="edgeLabel;html=1;align=center;verticalAlign=middle;resizable=0;points=[];" vertex="1" connectable="0" parent="IoNQCCT8y5Htm-tojCqb-35">
          <mxGeometry x="-0.2606" y="-1" relative="1" as="geometry">
            <mxPoint as="offset" />
          </mxGeometry>
        </mxCell>
        <mxCell id="IoNQCCT8y5Htm-tojCqb-34" value="start&lt;br&gt;" style="ellipse;whiteSpace=wrap;html=1;" vertex="1" parent="1">
          <mxGeometry x="310" y="90" width="120" height="80" as="geometry" />
        </mxCell>
        <mxCell id="IoNQCCT8y5Htm-tojCqb-37" value="No" style="text;html=1;align=center;verticalAlign=middle;resizable=0;points=[];autosize=1;strokeColor=none;fillColor=none;" vertex="1" parent="1">
          <mxGeometry x="480" y="295" width="40" height="30" as="geometry" />
        </mxCell>
        <mxCell id="IoNQCCT8y5Htm-tojCqb-40" value="" style="endArrow=classic;html=1;rounded=0;entryX=0.011;entryY=0.627;entryDx=0;entryDy=0;entryPerimeter=0;" edge="1" parent="1" target="IoNQCCT8y5Htm-tojCqb-21">
          <mxGeometry width="50" height="50" relative="1" as="geometry">
            <mxPoint x="370" y="200" as="sourcePoint" />
            <mxPoint x="300" y="500" as="targetPoint" />
            <Array as="points">
              <mxPoint x="260" y="200" />
              <mxPoint x="260" y="508" />
            </Array>
          </mxGeometry>
        </mxCell>
        <mxCell id="IoNQCCT8y5Htm-tojCqb-41" value="Admin" style="edgeLabel;html=1;align=center;verticalAlign=middle;resizable=0;points=[];" vertex="1" connectable="0" parent="IoNQCCT8y5Htm-tojCqb-40">
          <mxGeometry x="-0.1168" y="-1" relative="1" as="geometry">
            <mxPoint as="offset" />
          </mxGeometry>
        </mxCell>
      </root>
    </mxGraphModel>
  </diagram>
</mxfile>
